<?xml version="1.0" encoding="utf-8"?>
<!-- Generator: Adobe Illustrator 18.1.0, SVG Export Plug-In . SVG Version: 6.00 Build 0)  -->
<svg version="1.1" id="Layer_1" xmlns="http://www.w3.org/2000/svg" xmlns:xlink="http://www.w3.org/1999/xlink" x="0px" y="0px"
	 viewBox="0 0 22.952 24.434" enable-background="new 0 0 22.952 24.434" xml:space="preserve">
<g>
	<path fill="#FFFFFF" d="M9.804,24.434v-7.486c0-0.481,0.031-0.937,0.095-1.368c0.063-0.431,0.184-0.849,0.361-1.254
		c-0.507,0.633-1.178,1.204-2.014,1.71L1.71,19.798l-1.672-2.85l6.536-3.8c0.912-0.532,1.836-0.836,2.774-0.912
		c-0.507-0.05-0.982-0.146-1.425-0.285S7.03,11.59,6.574,11.286L0,7.448l1.672-2.85l6.574,3.8c0.886,0.507,1.608,1.166,2.166,1.976
		c-0.228-0.456-0.387-0.918-0.475-1.387C9.848,8.519,9.804,8.031,9.804,7.524V0h3.344v7.486c0,1.039-0.177,1.951-0.532,2.736
		c0.278-0.38,0.589-0.709,0.931-0.988c0.342-0.278,0.728-0.557,1.159-0.836l6.536-3.762l1.672,2.85l-6.536,3.8
		c-0.431,0.279-0.855,0.494-1.273,0.646c-0.418,0.152-0.855,0.253-1.311,0.304c0.456,0.051,0.893,0.146,1.311,0.285
		c0.418,0.14,0.842,0.349,1.273,0.627l6.574,3.838l-1.672,2.85l-6.574-3.8c-0.456-0.279-0.861-0.557-1.216-0.836
		c-0.355-0.279-0.672-0.621-0.95-1.026c0.405,0.836,0.608,1.748,0.608,2.736v7.524H9.804z"/>
</g>
</svg>
