<svg xmlns="http://www.w3.org/2000/svg" viewBox="0 0 612 792" enable-background="new 0 0 612 792"><path d="M261.417 721.758v-199.61c0-12.825.827-24.983 2.533-36.476 1.68-11.492 4.906-22.638 9.626-33.437-13.52 16.88-31.41 32.104-53.702 45.596L45.596 598.143 1.013 522.15 175.29 420.824c24.32-14.185 48.957-22.29 73.968-24.318-13.52-1.333-26.184-3.893-37.997-7.6-11.81-3.705-23.81-9.625-35.97-17.73L0 268.836l44.583-75.992 175.29 101.325c23.626 13.52 42.877 31.09 57.756 52.69-6.08-12.16-10.32-24.48-12.667-36.984-2.373-12.48-3.546-25.49-3.546-39.01V70.242h89.166v199.61c0 27.703-4.72 52.02-14.185 72.953 7.413-10.132 15.705-18.905 24.824-26.344 9.12-7.412 19.412-14.85 30.904-22.29l174.278-100.31 44.583 75.992L436.71 371.175c-11.493 7.44-22.8 13.172-33.945 17.225-11.146 4.053-22.798 6.746-34.957 8.106 12.16 1.36 23.81 3.893 34.957 7.6 11.146 3.732 22.45 9.305 33.944 16.718L612 523.162l-44.583 75.993-175.29-101.324c-12.16-7.438-22.96-14.85-32.425-22.29s-17.918-16.56-25.33-27.358c10.798 22.29 16.21 46.61 16.21 72.954V721.76h-89.165z" fill="#0091D9"/></svg>