<?xml version="1.0" encoding="iso-8859-1"?>
<!-- Generator: Adobe Illustrator 18.1.0, SVG Export Plug-In . SVG Version: 6.00 Build 0)  -->
<svg version="1.1" id="Layer_1" xmlns="http://www.w3.org/2000/svg" xmlns:xlink="http://www.w3.org/1999/xlink" x="0px" y="0px"
	 viewBox="0 0 612 792" style="enable-background:new 0 0 612 792;" xml:space="preserve">
<g>
	<path style="fill:#0091D9;" d="M261.417,721.758V522.149c0-12.826,0.827-24.984,2.533-36.477
		c1.68-11.492,4.906-22.638,9.626-33.437c-13.519,16.879-31.411,32.104-53.702,45.596L45.596,598.142L1.013,522.149l174.278-101.324
		c24.318-14.185,48.956-22.291,73.967-24.318c-13.519-1.333-26.184-3.893-37.997-7.599c-11.812-3.706-23.811-9.626-35.97-17.732
		L0,268.838l44.583-75.993l175.291,101.325c23.625,13.519,42.876,31.091,57.755,52.689c-6.079-12.159-10.319-24.478-12.666-36.983
		c-2.373-12.479-3.546-25.491-3.546-39.01V70.242h89.166v199.609c0,27.704-4.72,52.022-14.185,72.954
		c7.413-10.132,15.705-18.905,24.824-26.344c9.119-7.413,19.412-14.852,30.904-22.291l174.278-100.311l44.583,75.993
		L436.709,371.175c-11.492,7.439-22.798,13.172-33.944,17.225c-11.146,4.053-22.798,6.746-34.957,8.106
		c12.159,1.36,23.811,3.893,34.957,7.599c11.146,3.733,22.451,9.306,33.944,16.719L612,523.162l-44.583,75.993L392.126,497.831
		c-12.159-7.439-22.958-14.852-32.424-22.291s-17.918-16.559-25.331-27.358c10.799,22.291,16.212,46.609,16.212,72.954v200.623
		H261.417z"/>
</g>
</svg>
