<svg xmlns="http://www.w3.org/2000/svg" xmlns:xlink="http://www.w3.org/1999/xlink" width="22.952" height="24.434" viewBox="0 0 22.952 24.434"><defs><path id="a" d="M0 0h22.952v24.434H0z"/></defs><clipPath id="b"><use xlink:href="#a" overflow="visible"/></clipPath><path clip-path="url(#b)" d="M9.804 24.434v-7.486c0-.48.03-.937.095-1.367.062-.43.182-.85.36-1.254-.507.634-1.178 1.204-2.014 1.71L1.71 19.798l-1.672-2.85 6.536-3.8c.912-.533 1.836-.837 2.774-.913-.507-.05-.982-.146-1.425-.285-.444-.14-.893-.36-1.35-.665L0 7.448l1.672-2.85 6.574 3.8c.886.507 1.608 1.165 2.166 1.976-.228-.456-.387-.918-.475-1.387-.09-.47-.133-.956-.133-1.463V0h3.344v7.486c0 1.04-.177 1.95-.532 2.736.278-.38.59-.71.93-.988.344-.28.73-.557 1.16-.836l6.536-3.762 1.672 2.85-6.536 3.8c-.43.28-.854.494-1.272.646s-.855.253-1.312.304c.456.05.894.146 1.312.285.418.14.842.35 1.272.628l6.574 3.838-1.672 2.85-6.574-3.8c-.456-.278-.86-.557-1.216-.836-.355-.278-.672-.62-.95-1.025.405.836.608 1.748.608 2.735v7.524H9.804z"/></svg>