<svg xmlns="http://www.w3.org/2000/svg" viewBox="0 0 225.046 60.031" enable-background="new 0 0 225.046 60.031"><path fill="#00ACED" d="M221.354 18.815v.476h-.924v2.41h-.573v-2.41h-.914v-.475h2.41zm3.12 2.886l-.107-1.698c-.01-.223-.01-.496-.024-.806h-.028c-.072.26-.172.596-.242.86l-.522 1.6h-.592l-.52-1.64c-.054-.214-.14-.562-.2-.82h-.035c0 .267-.012.542-.02.806l-.106 1.7h-.553l.212-2.887h.86l.5 1.41c.073.224.114.435.19.733h.01c.077-.254.137-.51.202-.71l.496-1.434h.83l.224 2.886h-.574zM26.828 55.416c-2.84 2.84-6.78 4.598-11.116 4.598C7.032 60.014 0 52.98 0 44.296c0-8.68 7.033-15.712 15.712-15.715 4.337 0 8.276 1.766 11.116 4.603l-4.68 4.68c-1.652-1.646-3.92-2.665-6.436-2.665-5.02.015-9.087 4.08-9.097 9.098.01 5.028 4.078 9.095 9.097 9.103 2.518 0 4.784-1.022 6.437-2.667l4.678 4.683zM174.557 32.918c0 4.068-3.462 7.508-7.556 7.508-4.054 0-7.513-3.445-7.554-7.508V18.815h-6.65v14.103c0 6.652 4.6 12.35 10.933 13.823V59.75h6.644V46.724c6.22-1.525 10.78-7.188 10.83-13.757V18.815h-6.647v14.103zM215.23 47.857l-1.238 1.283c-2.58 2.664-6.126 4.135-9.99 4.135-7.706 0-13.972-6.242-13.972-13.922 0-7.73 6.266-14.02 13.97-14.02 3.697 0 7.387 1.546 9.89 4.138l1.268 1.314 4.723-5.034-1.22-1.19c-3.984-3.878-9.188-6.013-14.658-6.013-11.422 0-20.71 9.336-20.71 20.807 0 5.49 2.14 10.682 6.05 14.646 3.982 3.876 9.19 6.015 14.66 6.015 5.49 0 10.734-2.154 14.755-6.066l1.252-1.216-4.78-4.877zM215.23 47.857l-1.238 1.283c-2.58 2.664-6.126 4.135-9.99 4.135-7.706 0-13.972-6.242-13.972-13.922 0-7.73 6.266-14.02 13.97-14.02 3.697 0 7.387 1.546 9.89 4.138l1.268 1.314 4.723-5.034-1.22-1.19c-3.984-3.878-9.188-6.013-14.658-6.013-11.422 0-20.71 9.336-20.71 20.807 0 5.49 2.14 10.682 6.05 14.646 3.982 3.876 9.19 6.015 14.66 6.015 5.49 0 10.734-2.154 14.755-6.066l1.252-1.216-4.78-4.877zM106.552 53.156c-3.543-.08-6.374-2.156-6.38-6.584V18.807h-6.586v27.766c0 8.11 5.83 13.118 13.06 13.18h4.15v-6.596h-4.244zM41.974 28.742c-8.64 0-15.642 6.998-15.642 15.63 0 1.503.225 2.947.62 4.323.577 2.016 1.543 3.86 2.82 5.45 2.865 3.574 7.262 5.868 12.2 5.868 8.643 0 15.642-6.997 15.646-15.64-.004-8.633-7.003-15.63-15.644-15.63zm0 24.692c-4.998-.012-9.05-4.06-9.053-9.06.005-4.997 4.056-9.04 9.054-9.054 5.004.014 9.05 4.057 9.05 9.053 0 5.002-4.046 9.05-9.05 9.06zM75.307 28.742c-8.638 0-15.64 6.998-15.64 15.63 0 8.645 7.002 15.642 15.64 15.642 8.643 0 15.64-6.997 15.645-15.64-.005-8.634-7.003-15.632-15.645-15.632zm0 24.692c-4.995-.012-9.045-4.06-9.05-9.06.005-4.997 4.055-9.04 9.05-9.054 5.005.014 9.052 4.057 9.052 9.053-.002 5.002-4.048 9.05-9.053 9.06zM151.546 15.722V7.99h-2.175V0h-2.14v7.99l-3.91-.004V0h-2.136v7.984h-2.164l.002 7.728c-.002 2.678 1.205 4.964 2.913 5.887v30.993c0 .377-.185.668-.618.668-.23 0-.52-.173-.697-.524l-13.166-29.583v.003l-.348-.657c-1.306-2.48-3.78-3.957-6.577-3.957-4.133 0-7.36 3.27-7.36 7.443v33.762h6.74V25.986c0-.375.19-.668.62-.668.237 0 .522.174.7.525l13.474 30.242c1.305 2.48 3.78 3.945 6.613 3.945 4.135 0 7.33-3.264 7.33-7.438v-31c1.697-.932 2.9-3.205 2.9-5.87z"/></svg>