<svg xmlns="http://www.w3.org/2000/svg" viewBox="0 0 175.7 138.7" enable-background="new 0 0 175.7 138.7"><path d="M128.7 45.2H55.5c-.4 1-.7 1.5-1.1 2.3-2.1 5.3-3.3 10.7-3.8 16.3.9.4 1.8.7 2.6 1 4.6 1.9 8.6 4.7 12.3 8.2 3.5 3.7 6.3 7.7 8.3 12.3 2 4.8 3 9.7 3 15 0 5.3-1 10.2-3.1 14.9 3.3 2.3 6.8 4.2 10.6 5.8 3.7 1.6 7.2 2.8 11.2 3.3v-.9c0-6.8 1.5-16 3.9-27.4 3-14.1 7-24.6 11.4-32 4.4-7.5 10.5-13.8 17.9-18.8zM157.7 46.8c-15.3 5.1-26.7 14.2-34.4 27-7.9 13.2-11.8 29.9-11.8 50.3v1.1c6-.5 11.3-1.8 16.5-4 6.8-3 12.8-6.8 18.1-11.9 5.1-5.1 9.2-11.2 11.8-18.1 3-6.9 4.4-14.1 4.4-21.7 0-7.5-1.4-14.9-4.2-22-.3-.2-.3-.6-.4-.7zM146 29.5c-5.1-5.1-11-9.2-17.9-11.8-6.8-3-14.2-4.5-21.8-4.5h-.4c-7.6 0-14.6 1.5-21.5 4.3-7 2.8-13 7-18.1 12-.9.9-1.6 1.7-2.4 2.7h84.5c-.7-1-1.5-1.7-2.4-2.7z" fill="none"/><path fill="#FCFCFC" d="M39.4 94.7c-1.6 0-3 .6-4.3 1.6-1.2 1.1-1.7 2.4-1.7 4s.5 3 1.7 4.2c1.1 1.2 2.5 1.8 4.3 1.8 1.6 0 2.8-.6 3.8-1.6 1.1-1.2 1.6-2.4 1.6-4 0-2-.5-3.3-1.6-4.4-1-1-2.2-1.6-3.8-1.6zM15.1 94.2c-1.8 0-3.2.5-4 1.6-1.3 1.2-1.8 2.6-1.8 4.2s.5 3 1.8 4.2c1.1.9 2.4 1.4 4 1.4s3-.6 4-1.4c1.3-1.2 1.8-2.6 1.8-4.2s-.5-3-1.8-4.3c-1-1-2.4-1.5-4-1.5z"/><path fill="#fff" d="M170.3 42.7c-3.7-8.6-8.7-16-15.1-22.3C148.9 13.9 141.5 9 133 5.5 124.8 1.8 115.8 0 106.3 0S87.8 1.8 79.4 5.5c-8.6 3.7-16 8.6-22.3 14.9-6.1 6.1-11 13.7-14.7 22.3-2.6 6.1-4.4 12.5-5.1 19.1-6.5.2-12.5 1.8-18.1 5.1C13.4 70.5 8.6 75.2 5.3 81 1.8 87 0 93.5 0 100.4c0 6.8 1.8 13.2 5.3 19.1 3.3 5.8 8.1 10.5 13.9 13.9 6 3.5 12.4 5.3 19.2 5.3 6.8 0 13.4-1.8 19.1-5.3 3.5-1.9 6.5-4.2 9.2-7.2 4 2.8 8.3 5.3 12.8 7.2 8.5 3.5 17.4 5.3 26.9 5.3 9.3 0 18.3-1.8 26.7-5.3 8.3-3.7 15.7-8.8 22.2-15.3 6.5-6.1 11.4-13.5 15.1-22.1 3.7-8.3 5.4-17.1 5.4-26.6-.1-9.5-1.8-18.4-5.5-26.7zM66.4 29.5c5.1-5.1 11.1-9.2 18.1-12 6.9-2.8 13.9-4.3 21.5-4.3h.4c7.5 0 14.9 1.5 21.8 4.5 6.9 2.6 12.9 6.8 17.9 11.8.9.9 1.6 1.7 2.5 2.7H64c.8-1 1.6-1.7 2.4-2.7zm-40.9 80.7h-4v-2.5c-2 1.6-3.9 2.3-6 2.3-3.7 0-6.4-1.1-8.3-3.3-1.6-2-2.5-4-2.5-6.3 0-2.8.9-5.3 2.8-7.2 1.6-2.3 4.2-3.3 7.9-3.3 2.3 0 4.5.7 6.8 2.3 2.3 1.6 3.4 4.4 3.4 8.1v9.9zm21.3-3c-2 2.3-4.3 3.3-7.2 3.3-3.3 0-6.2-1.1-8.1-3-1.8-1.9-2.9-4.6-2.9-7.5V84.2h5v8h-.1c.4 0 1.1-.9 2.1-1.4.9-.6 2-.8 3.5-.8 2.8 0 5.3 1.1 7.2 3 1.9 1.9 3 4.3 3 7.1-.1 2.7-1 5.2-2.5 7.1zm11.4-2.8c1.1 1.1 2.5 1.5 4 1.5 1.9 0 3.5-.6 4.4-2.6h5.5c-.7 2-2 4-3.7 5.3-2 1.2-3.9 2-6.2 2-2.8 0-5.3-1-7.2-2.9-2.1-1.9-3.2-4.5-3.2-7.5s1.1-5.3 3.2-7.2c1.9-1.9 4.4-3 7.2-3 1.4 0 2.8.4 4.2 1.1 1.4.6 2.5 1.4 3.3 2.5 1.1 1.1 1.8 1.9 2.3 3.9h-5.5c-1.1-2-2.5-2.6-4.4-2.6-1.8 0-3.1.4-4 1.5-1.1 1.2-1.6 2.4-1.6 4 .1 1.4.6 2.8 1.7 4zm41.2-8.3c-2.5 11.4-3.9 20.6-3.9 27.4v.9c-4-.5-7.5-1.7-11.2-3.3-3.8-1.6-7.4-3.5-10.8-5.8 2.1-4.8 3.2-9.7 3.2-14.9 0-5.3-1-10.2-3-15-1.9-4.6-4.7-8.6-8.2-12.3-3.7-3.5-7.7-6.3-12.3-8.3-.9-.4-1.8-.7-2.6-1.1.5-5.6 1.8-10.9 3.8-16.2.4-.9.7-1.3 1.1-2.3h73.1c-7.4 5-13.5 11.3-17.9 18.9-4.3 7.4-8.3 18-11.3 32zm58.4-5c-2.6 6.8-6.7 13-11.8 18.1-5.3 5.1-11.2 9-18 11.9-5.3 2.3-10.5 3.5-16.5 4V124c0-20.3 3.9-37.1 11.8-50.3 7.7-12.8 19.2-22 34.5-27 .2.2.1.5.3.7 2.8 7 4.2 14.4 4.2 22-.1 7.6-1.5 14.8-4.5 21.7z"/></svg>