<svg xmlns="http://www.w3.org/2000/svg" viewBox="0 0 200 200" enable-background="new 0 0 200 200"><g fill="#0091D9"><path d="M133 115.1c-2.7 0-5.2 2.6-5.2 7.4 0 5.4 2.4 9.3 6.1 9.3 2.8 0 5-2.1 5-7.8.1-4.7-2-8.9-5.9-8.9zM48.5 79.9c0-4.3-1.7-8.1-5.3-10.2-1.9-1.1-4.4-1.6-7.2-1.6-2 0-3.1.2-3.5.5-.4.3-.5.7-.5 2.4v17.5c0 3.2 1.3 4.1 4.6 4.1 8.3.1 11.9-6 11.9-12.7zM166.8 93.3c2.8 0 5-2.1 5-7.8 0-4.7-2.1-8.9-6-8.9-2.7 0-5.2 2.6-5.2 7.4.1 5.4 2.5 9.3 6.2 9.3zM0 0v200h200V0H0zm166.3 75c5.2 0 9.2 4.2 9.2 9.6 0 7-5.1 10.2-9.2 10.2-5.8 0-9.3-4.7-9.3-9.5 0-7.1 5.5-10.3 9.3-10.3zm-19.9 1h1.6v-1.1c0-1.4.4-2.7.6-3.6.3-1 1.1-3 3.3-5 1.5-1.3 3.2-2 4.7-2.3 1.5.1 2.8.7 3.5 1.6.3.4.4 1 .2 1.5-.2.3-.3.6-.8.9-.4.3-.7.3-1.2-.1-.7-.7-2-1.5-3.3-1.5-1.2 0-1.6.4-2.3 1.3-.5.8-.9 2.9-.9 6.5V76h4.6c.2 0 0 1-.4 1h-4v12.6c0 3.1 0 3.2 3 3.6v.8h-10v-.9c3-.2 3-.5 3-3.2V77h-2.5l-.2-.1 1.1-.9zM123 93.1c3-.3 3-.5 3-3.3v-8.7c0-2.7 0-2.9-3-3.3v-1.1c2-.4 4-.9 6-1.8v3.4c1-.6 1.8-1.2 2.8-2 1.2-.7 2.4-1.3 3.7-1.3 3.3 0 5.5 2.3 5.5 6.4v8.2c0 2.9 0 3 3 3.3V94h-9v-.9c3-.3 3-.6 3-3.5v-7c0-3-1-5-4-5-1.8 0-4 1.1-5 2.4v9.8c0 2.9 0 3 3 3.3v.9h-9v-.9zM116.8 67c1.1 0 2 .9 2 2.2 0 1.1-.9 2.1-2 2.1s-2.1-1-2.1-2.1c-.1-1.3.9-2.2 2.1-2.2zM24 93c4-.2 5-.5 5-4.1V72c0-3.6-1-3.7-4-4v-1h11.6c5.5 0 9.4.8 12 3.4 2.1 2 3.6 5.1 3.6 9.1 0 5.1-2 8.7-5.2 11.2S39.7 94 34.5 94H24v-1zm30 13.4c-3 .1-3.6.7-3.8 2.4-.1 1.3-.2 3.2-.2 7.3V133h-1.5l-17.9-22h.4v17.7c.3 2.2 1 2.6 4 2.8v1.5H25v-1.5c2-.1 3.5-.6 3.8-2.7.1-1.4.2-3.4.2-7.3v-9.4c0-3.1-.2-3.1-1-4.2-.9-1-2-1.3-4-1.5V105h6.1l17.8 22h.1v-10.8c0-4.1-.4-6-.5-7.1-.3-1.9-1.5-2.5-4.5-2.6V105h11v1.4zm4-36.9c-.9-1-2-1.3-4-1.5v-1h6l17.8 21h.2V77.7c0-4.1-.4-6-.5-7.1-.3-2-1.5-2.6-4.5-2.7V67h11v.9c-3 .1-3.6.7-3.8 2.4-.1 1.3-.2 3.2-.2 7.3V95h-1.6L60.5 72H60v11c0 3.8.5 5.9.5 7.2.3 2.2 1.5 2.6 4.5 2.8v1H55v-1c2-.1 3.5-.6 3.8-2.7.1-1.4.2-3.4.2-7.3v-9.4c0-3.1-.2-3.1-1-4.1zm6.2 61c1.8 0 3.3-.8 4.9-2.2l.7 1.1c-2.7 3.2-5.6 3.9-6.9 3.9-5.1 0-8.2-4.3-8.2-9.1 0-2.9 1-5.4 2.8-7.3 1.7-1.9 4-2.9 6.1-2.9 3.6 0 6.4 2.9 6.4 6.4 0 1-.2 1.2-.9 1.4-.7.1-6.1.5-11.4.6.1 5.8 3.5 8.1 6.5 8.1zm36.8-15.2c-3 .3-2.7.7-3.6 3.1-1.4 3.5-3.4 8.6-5.3 14.6h-1.2c-1.8-5-3.5-9-5.2-13.5-1.6 4.2-3.4 8.5-5.1 13.5h-1.3c-1.5-5-3-9.8-4.9-15-.7-2.3-1.3-2.5-3.3-2.7V114h9v1.3c-3 .4-2.9.6-2.3 2.7 1 3.3 1.9 7 3 10h.1c1.6-4 3.2-9 5-14h1.2c1.5 5 3.3 10 5.1 14h.1c.9-3 2.2-6.6 3-9.9.6-2.3.7-2.4-2.3-2.8V114h8v1.3zm2.6-24.7C103 89 102 87 101.1 84h-9.4c-.6 2-1 3.6-1.6 5.4-1 2.9-1.1 3.3 2.9 3.6v1H83v-1c3-.4 3.4-.6 5-4.4l8.8-22.2 1.3-.4c2.6 7.1 5.6 15.6 8.3 22.8 1.2 3.4 2.1 4.2 4.6 4.2h1.5c2.7 0 3.5-.4 3.5-3.2V81c0-2.6-1-2.8-3-3.1v-1.1c2-.4 4-.9 5-1.8v14.8c0 2.8 1 3.1 4 3.3v.9h-21v-1c3-.3 3.1-.8 2.6-2.4zm18.4 40.9v1.5h-12v-1.5c4-.2 4-.5 4-4v-5.7c0-.7-.1-1.1-.9-2.5-1.7-2.9-3.2-5.6-5.4-9.2-1.7-2.9-1.7-3.3-4.7-3.6V105h10v1.4c-3 .4-3.1.9-2.2 2.3 1.8 3.3 3.8 6.7 5.8 9.9 1.7-2.9 3.7-6.8 5-9.5 1-2.2.5-2.4-2.5-2.8V105h10v1.4c-3 .4-3.6.7-5.4 3.5-1.9 3.1-3.6 5.6-5.7 9.3-.5.9-.9 1.4-.9 2.4v5.8c-.1 3.5.9 3.9 4.9 4.1zm11.4 1.8c-5.8 0-9.3-4.5-9.3-9.2 0-7.2 5.5-10.1 9.2-10.1 5.2 0 9.2 4 9.2 9.3.1 7-5 10-9.1 10zm22.6-15.6c-.5.2-.8.1-1.1-.1-.6-.7-1.3-.9-2-.9-1.2 0-2.9 1.5-3.9 4v7.6c0 2.8 1 3.1 4 3.3v1.4h-10v-1.4c3-.2 3-.5 3-3.3v-8.7c0-2.9 0-3-2-3.3v-1.1c2-.3 4-.9 5-1.8v4.5h.5c1.3-2 3.1-4.4 5.3-4.4 1.5 0 2.5 1.1 2.5 2.1 0 .8-.5 1.6-1.3 2.1zm22 15.1h-5.6c-2.3-2.4-4.9-5.6-7.5-8.5-.6-.7-.9-.9-1.2-.9-.2 0-.7 0-.7.2v4.7c0 2.8 0 3.1 3 3.3v1.4h-9v-1.4c3-.2 3-.6 3-3.3v-19.8c0-2.9 0-3.2-3-3.3V104c2-.3 4-1.1 6-1.6v20c1-.3 2-.8 2.7-1.4.9-.9 1.9-2.6 2.7-3.8.9-1.2.6-1.5-1.4-1.8v-1.2l9-.5v1.2c-3 .5-3.9 1-5.5 2.6-1.1 1-1.8 1.8-3.7 4.1.8 1.2 5.3 6.1 6.8 7.6s2.5 2.3 4.5 2.3v1.3zM96.6 71c-1.4 4-2.7 8-4.1 11h8l-3.9-11zM62.7 115c-2 0-4 1.9-4.8 5.3 2.5 0 5 .1 7.6 0 .8 0 1.1-.4 1.1-1 0-2.3-1.5-4.3-3.9-4.3z"/></g></svg>