<svg xmlns="http://www.w3.org/2000/svg" viewBox="0 0 273 114.7" enable-background="new 0 0 273 114.7"><g fill="#0091D9"><path d="M248.8 15H237v25h12.3l5.7-7.4v-9.7c0-8.5-6.2-7.9-6.2-7.9zM218 0v55h54V0h-54zm31.9 46.4c-13.7 0-19.9.2-19.9.2V9h15.9S263 6.9 263 21.9v10.5s.6 14-13.1 14zM109 55h55V0h-55v55zm13-46h21.3s9.3-.7 9.3 9.5-5.5 10.5-5.5 10.5 5.9.2 5.9 8.1V46h-8v-8.4s.1-6.3-4.2-6.3-11.8.1-11.8.1V46h-7V9zM145.1 19.5c0-5.3-5.7-4.5-5.7-4.5H129v10.4s5.6-.2 10.3-.2 5.8-1 5.8-5.7zM0 55h55V0H0v55zM12.3 9l5.2 28.4 6.7-28.6 8.2.1 6.7 28.9 5-28.9h7.2l-7.7 37h-9.3l-6-27.2L21.6 46h-9.2L4.8 9h7.5zM69 15h10v25H69v6h27v-6H86V15h10V8H69v7zM174 15h5v25h-5v6h31V34h-6v6h-13V30h10v-6h-10v-9h13v6h6V9h-31z"/></g><g fill="#0091D9"><path d="M0 67.9h10.3v46.2H0V67.9zM53.9 67.9h10.3v46.2H53.9l-22-29v29H21.5V67.9h9.7l22.7 29.8V67.9zM86.2 77.1c-1 .8-1.5 1.9-1.5 3.2 0 1.3.6 2.4 1.8 3.2 1.2.8 4 1.7 8.4 2.8 4.4 1.1 7.8 2.7 10.2 4.9 2.4 2.2 3.6 5.3 3.6 9.5 0 4.1-1.6 7.5-4.7 10.1-3.1 2.6-7.2 3.9-12.3 3.9-7.3 0-13.9-2.7-19.8-8.1l6.2-7.5c5 4.4 9.6 6.5 13.8 6.5 1.9 0 3.4-.4 4.5-1.2 1.1-.8 1.6-1.9 1.6-3.3s-.6-2.5-1.7-3.3c-1.1-.8-3.4-1.6-6.8-2.5-5.4-1.3-9.3-2.9-11.8-5S74 85 74 80.6c0-4.4 1.6-7.8 4.7-10.2s7.1-3.6 11.8-3.6c3.1 0 6.2.5 9.3 1.6 3.1 1.1 5.8 2.6 8.1 4.5l-5.2 7.5c-4-3-8.2-4.6-12.4-4.6-1.8.1-3.1.5-4.1 1.3zM117.4 67.9h10.3v46.2h-10.3V67.9zM174.2 73.9c4.4 4 6.6 9.6 6.6 16.8 0 7.2-2.2 12.9-6.5 17.1-4.3 4.2-10.9 6.3-19.7 6.3h-15.8V67.9h16.3c8.4 0 14.7 2 19.1 6zm-7.6 27.5c2.5-2.4 3.8-5.8 3.8-10.4 0-4.5-1.3-8-3.8-10.5-2.5-2.4-6.4-3.7-11.7-3.7h-5.8V105h6.5c4.9 0 8.5-1.2 11-3.6zM222.9 67.9v9.2h-23v9.5h20.7v8.8h-20.7v9.6h23.8v9.1h-34.1V67.9h33.3zM270.1 83.2c0 7.4-2.9 12.2-8.8 14.4l11.7 16.5h-12.7L250 99.3h-7.1v14.8h-10.3V67.9h17.5c7.2 0 12.3 1.2 15.4 3.6 3.1 2.5 4.6 6.4 4.6 11.7zm-12.4 5.5c1.3-1.1 1.9-3 1.9-5.5s-.7-4.2-2-5.1c-1.3-.9-3.6-1.4-6.9-1.4H243v13.7h7.5c3.5 0 5.9-.5 7.2-1.7z"/></g></svg>