<svg xmlns="http://www.w3.org/2000/svg" viewBox="0 0 226.9 132.5" enable-background="new 0 0 226.9 132.5"><g fill="#fff"><path d="M19.3 80.1c.5 0 1.2.1 2.1.2v8c-.5-.1-1.5-.1-2.8-.2-1.3 0-2.2.3-2.7.9-.5.6-.7 1.3-.7 2v3.2h6.4v6.9h-6.4v30.2H5.5V101H0v-6.9h5.4v-2.4c0-4 .7-6.8 2-8.3 1.4-2.2 4.8-3.4 10.3-3.4.6 0 1.1.1 1.6.1zM50.2 92.9c.1 0 .4 0 .8.1v10c-.6-.1-1.2-.1-1.6-.1h-1.2c-3.9 0-6.6 1.3-7.9 3.8-.8 1.4-1.1 3.7-1.1 6.7v17.9h-9.9V93.8h9.3v6.5c1.5-2.5 2.8-4.2 3.9-5.1 1.8-1.5 4.2-2.3 7.1-2.3h.6zM65.5 89.3h-9.9v-9h9.9v9zm-10 4.5h9.9v37.4h-9.9V93.8zM97.9 94.5c2.6 1.2 4.8 3 6.5 5.5 1.5 2.2 2.5 4.8 3 7.7.3 1.7.4 4.2.3 7.4H80.4c.2 3.8 1.5 6.4 3.9 7.9 1.5.9 3.3 1.4 5.4 1.4 2.2 0 4-.6 5.4-1.7.8-.6 1.4-1.5 2-2.6h10c-.3 2.2-1.5 4.5-3.6 6.8-3.4 3.6-8 5.5-14.1 5.5-5 0-9.4-1.5-13.2-4.6-3.8-3.1-5.7-8.1-5.7-15 0-6.5 1.7-11.5 5.2-14.9 3.4-3.5 7.9-5.2 13.4-5.2 3.3.1 6.2.6 8.8 1.8zM83.3 103c-1.4 1.4-2.3 3.4-2.6 5.8h16.9c-.2-2.6-1-4.6-2.6-5.9-1.6-1.3-3.5-2-5.8-2-2.6-.1-4.5.6-5.9 2.1zM142.6 95.9c2.5 2 3.7 5.4 3.7 10.1v25.2h-10v-22.8c0-2-.3-3.5-.8-4.5-1-1.9-2.8-2.9-5.5-2.9-3.3 0-5.6 1.4-6.8 4.2-.6 1.5-1 3.4-1 5.7v20.3h-9.8V93.8h9.5v5.5c1.3-1.9 2.4-3.3 3.6-4.2 2-1.5 4.5-2.3 7.6-2.3 3.9.1 7.1 1.1 9.5 3.1zM174.2 94.4c1.8 1 3.2 2.4 4.3 4.1V80.6h9.9v50.5h-9.5V126c-1.4 2.2-3 3.8-4.8 4.8-1.8 1-4 1.5-6.7 1.5-4.4 0-8.1-1.8-11-5.3s-4.5-8.1-4.5-13.6c0-6.4 1.5-11.4 4.4-15.1 2.9-3.7 6.9-5.5 11.8-5.5 2.3.1 4.3.6 6.1 1.6zm2.4 26.6c1.4-2.1 2.2-4.7 2.2-8 0-4.6-1.2-7.9-3.5-9.8-1.4-1.2-3.1-1.8-4.9-1.8-2.9 0-5 1.1-6.3 3.2-1.3 2.2-2 4.8-2 8.1 0 3.5.7 6.2 2 8.3 1.4 2.1 3.4 3.1 6.2 3.1s4.8-1 6.3-3.1zM202.6 119.2c.2 1.7.7 3 1.3 3.7 1.2 1.3 3.5 2 6.8 2 1.9 0 3.5-.3 4.6-.9 1.1-.6 1.7-1.4 1.7-2.6 0-1.1-.5-1.9-1.4-2.5-.9-.6-4.3-1.6-10.2-3-4.3-1.1-7.2-2.4-9-3.9-1.7-1.6-2.6-3.8-2.6-6.7 0-3.5 1.4-6.4 4.1-8.9 2.7-2.5 6.5-3.7 11.5-3.7 4.7 0 8.5.9 11.4 2.8 2.9 1.9 4.6 5.1 5.1 9.7h-9.8c-.1-1.3-.5-2.3-1.1-3-1.1-1.3-2.9-2-5.5-2-2.1 0-3.7.3-4.6 1-.9.7-1.4 1.4-1.4 2.3 0 1.1.5 1.9 1.4 2.4 1 .5 4.4 1.4 10.2 2.7 3.9.9 6.8 2.3 8.8 4.2 1.9 1.9 2.9 4.2 2.9 7 0 3.7-1.4 6.7-4.1 9.1-2.8 2.3-7 3.5-12.8 3.5-5.9 0-10.2-1.2-13.1-3.7-2.8-2.5-4.2-5.6-4.2-9.5h10z"/></g><path fill="#fff" d="M191.2 64.2c-5.2 0-9.3-1.5-12.2-4.6-2.9-3-4.4-6.4-4.4-10.2 0-3.1.8-5.7 2.3-7.9 1.5-2.2 4-4.3 7.4-6.4l.4-.3c-1.2-1.5-2.2-3-2.9-4.5-.8-1.7-1.2-3.6-1.2-5.4 0-3.7 1.3-6.7 3.8-8.8 2.5-2.1 5.8-3.2 9.8-3.2 3.7 0 6.7 1.1 9.1 3.2 2.4 2.2 3.6 5 3.6 8.3 0 3-.7 5.5-2.2 7.4-1.3 1.7-3.2 3.3-5.7 4.8l6.1 7.4c.6-.9 1-1.9 1.4-3 .4-1.3.6-2.7.7-4.1v-.6h9.6v.6c-.2 3-.9 6.1-2.2 9.2-.7 1.6-1.8 3.5-3.2 5.4l9.4 11.2h-13l-3.2-3.9c-1.5 1.4-3 2.4-4.3 3.1-2.6 1.6-5.7 2.3-9.1 2.3zm3-50.1c-3.7 0-6.7 1-9.1 2.9-2.3 1.9-3.4 4.5-3.4 7.9 0 1.7.4 3.4 1.1 4.9.7 1.6 1.8 3.2 3.2 4.8l.5.5-1.6 1c-3.2 2-5.6 4.1-7 6.1-1.4 2-2.1 4.4-2.1 7.3 0 3.4 1.4 6.5 4.1 9.3 2.7 2.8 6.5 4.2 11.4 4.2 3.2 0 6.1-.6 8.6-1.9 1.4-.7 2.9-1.8 4.5-3.3l.5-.4 3.6 4.4h9.9l-8.4-10 .3-.4c1.6-2 2.7-3.9 3.4-5.5 1.2-2.8 1.9-5.5 2.1-8.2h-7.2c-.1 1.4-.3 2.7-.7 3.9-.5 1.4-1.1 2.7-1.9 3.9l-.4.6-8-9.7.4-.4c2.6-1.5 4.6-3.1 5.9-4.9 1.3-1.7 1.9-3.9 1.9-6.7 0-3.1-1.1-5.5-3.3-7.5-2.1-1.9-4.9-2.8-8.3-2.8zm-2.4 42.1c-2.3 0-4.1-.7-5.6-2.2-1.4-1.5-2.2-3.1-2.2-4.9 0-1.6.4-3 1.3-4.3.8-1.3 2.4-2.7 4.9-4.3l.4-.3 9.8 12-.4.4c-.9.9-2.1 1.8-3.6 2.5-1.3.7-2.9 1.1-4.6 1.1zm-1.3-14.4c-2.1 1.4-3.5 2.6-4.2 3.7-.7 1.1-1.1 2.3-1.1 3.6 0 1.5.6 2.8 1.8 4.1 1.2 1.3 2.8 1.9 4.7 1.9 1.5 0 2.9-.3 4.2-1 1.1-.6 2.1-1.2 2.9-1.9l-8.3-10.4zm2.9-10.3l-.3-.4c-1.4-1.7-2.3-2.8-2.7-3.5-.7-1.1-1.1-2.1-1.1-3.1 0-1.7.7-3 2-3.8.8-.5 1.8-.8 2.8-.8 1.6 0 2.8.5 3.6 1.4.8.9 1.2 2 1.2 3.1 0 1.6-.6 3-1.9 4.3-.6.7-1.6 1.5-3.1 2.4l-.5.4zm.6-10.4c-.8 0-1.5.2-2.1.6-1 .6-1.4 1.5-1.4 2.8 0 .8.3 1.6.9 2.5.4.6 1.1 1.6 2.3 3 1.1-.8 1.9-1.4 2.4-2 1.1-1.1 1.6-2.2 1.6-3.5 0-.9-.3-1.7-.9-2.4-.6-.6-1.5-1-2.8-1zM87.1 74.3c20.9 0 37.5-16.4 37.5-37.1C125.1 17.6 108.5 0 86.9 0 66.2 0 49.2 16.7 49.2 37.1c-.1 20.6 16.9 37.2 37.9 37.2zm-6.6-50.5c0-1.5.1-3 .5-4.4.8-3.2 3.4-5 6.5-4.7 3 .3 5.7 2.6 5.7 5.8.1 5.3 0 10.5 0 15.5v15c0 3.9-2.3 6.8-5.8 7-3.6.3-6.1-1.9-6.7-5.8-.2-1.2-.2-2.3-.2-3.5V23.8zM113.8 73.1h23.7c3.2-6 6.4-10.8 9.9-16.7 3.6 6.1 6.9 11.7 10.1 16.7h24.2c-7.4-13-14.8-25.1-22.3-37.6 6.8-11.7 13.5-23.4 20.4-35.4h-24c-2.8 5-5.5 9.3-8.6 14.5-3.2-5.2-6-9.5-8.8-14.5h-24.1c7.1 12 14 23.8 20.9 35.6-7.1 12.3-14.1 24.4-21.4 37.4zM45.8 29.1h-20v-8h25.1c-.5-7-1-14-1.4-20H3.8v72.5c7 0 14 .1 21-.1V50.1h21v-21z"/></svg>