<svg xmlns="http://www.w3.org/2000/svg" viewBox="0 0 810.872 803.686" enable-background="new 0 0 810.872 803.686"><path fill-rule="evenodd" clip-rule="evenodd" fill="#fff" d="M.083 779.8c2.912-8.034 6.348-15.482 15.733-18.032 2.658-.722 3.883-3.173 2.98-6.22-.392-1.323-1-2.948-.578-4.093 4.61-12.516.36-23.66-4.86-34.8-1.894-4.036-.737-7.552 3.103-10.342 5.655-4.11 10.895-8.795 16.612-12.808 5.016-3.52 10.268-5.75 17-3.796 7.2 2.087 13.217-1.943 15.326-9.58 1.29-4.675 1.6-9.624 2.326-14.456.684-4.537 2.186-8.276 8.324-8.146-3.744-1.49-5.625-3.788-4.666-7.417 2.156-8.137 3.04-16.42 3.623-24.794.246-3.544 3.06-6.223 5.168-8.994 2.424-3.18 4.723-6.488 5.8-10.31.79-2.802 2.522-6.067-3.384-6.72-4.476-.496-8.647-15.764-5.626-19.215 3.008-3.434 6.004-2.39 8.457 2.02 1.81-4.207 1.265-6.807-2.712-8.173-1.87-.643-3.61-1.55-3.752-3.678-.828-12.254-3.33-24.818 7.443-34.7 4.804-4.404 8.958-9.555 14.51-13.09 3.603-2.29 7.278-2.338 11.808-2.43 10.156-.206 18.238 5.3 26.672 8.08 11.938 3.935 21.14 1.35 31.21-2.81 4.593-1.9 8.987-2.037 13.43.448 6.362 3.56 12.15 2.472 17.173-2.63 4.037-4.104 8.783-5.762 14.525-5.423 10.78.637 21.088-.152 31.05-5.747 8.468-4.755 9.98-2.356 18.464 4.05 6.79 5.13 7.094 10.842 6.57 17.577-1.815 23.413 8.61 41.953 23.54 58.48 3.253 3.605 2.692 6.448 1.39 10.05-6.81 18.838-20.186 32.755-34.463 45.99-14.026 13-28.44 25.646-38.24 42.453-.937 1.606-1.876 3.736-3.888 3.71-6.807-.094-9.078 4.803-11.3 9.777-2.282 5.106-5.946 8.86-10.733 11.61-6.993 4.012-13.042 8.927-16.81 16.328-.908 1.78-2.64 3.274-4.28 4.517-2.903 2.198-4.728.108-6.263-2.103-1.795-2.587-.78-4.224 1.885-5.428 4.016-1.814 8.31-3.25 11.002-7.13 2.08-2.998 3.615-6.25 1.62-9.75-1.823-3.2-5.153-3.904-8.556-3.502-4.04.477-8.027 2.73-7.87 6.7.493 12.307-8.35 17.637-16.52 23.173-9.934 6.73-19.316 14.285-31.74 17.107-4.605 1.045-8.834 3.868-14.164 3.686-4.104-.14-6.248 3.663-8.22 6.846-1.976 3.182-3.907 6.367-6.812 8.815-2.148 1.81-4.14 2.284-6.93.692-7.648-4.36-16.768-2.008-20.586 5.997-4.588 9.622-11.754 13.536-21.947 12.206-9.17-1.197-15.806 2.472-20.847 9.8-6.066 0-12.14-.157-18.197.075-2.44.096-2.955-.437-2.88-2.878.22-6.988.077-13.992.077-20.992zM504.083 0c22.47 8.45 44.94 16.896 67.404 25.355 2.447.922 4.625 1.012 5.863-1.788 2.2-4.972 4.805-9.218 11.408-7.826 7.496 1.582 13.62 4.7 15.947 12.79 1.123 3.907-.223 9.5 3.977 11.35 6.25 2.75 12.104 7.167 19.692 6.314 8.008-.9 14.84 3.51 22.158 5.67 4.016 1.188 7.844 3.013 11.854 4.226 6.143 1.86 12.22 3.542 7.775 11.946 2.632 1.214 3.397-.873 4.767-1.433 5.606-2.283 10.185.886 9.3 6.796-.49 3.27-1.308 6.287.69 9.407 1.745 2.73-.6 3.814-2.573 4.512-4.332 1.53-5.69 4.57-6.285 8.99-.862 6.397-1.864 13.064-8.49 16.778-2.872 1.612-2.038 4.33-1.538 6.882.35 1.78-.252 3.285-1.982 4.035-1.762.765-3.203-.062-4.338-1.36-3.23-3.692-4.502-8.09-4.447-12.92.03-3.01-.668-5.147-4.01-6.438-6.05-2.337-11.186-5.88-11.705-13.312-.107-1.535-1.03-2.622-2.69-2.662-1.892-.044-3.733 1.18-3.32 2.775 1.216 4.687-2.01 11.21 5.282 13.565 2.61.842 2.406 2.697.898 4.315-2.863 3.074-2.047 6.234-1.035 9.764 3.483 12.155 1.354 24.774 2.744 37.126.466 4.143.095 8.357.974 12.518.766 3.612 1.73 6.25 6.357 5.075 3.58-.907 4.933 1.83 5.964 4.554 1.54 4.066 3.836 7.434 7.89 9.382 3.6 1.73 3.868 3.805.405 5.995-5.74 3.632-3.73 6.554.882 9.043 3.275 1.77 6.734 3.194 10.068 4.856 1.393.693 3.416 1.318 2.312 3.487-.852 1.676-2.957 2.168-4.26 1.222-5.857-4.253-13.994-4.625-18.71-10.533-5.626-7.048-12.776-6.746-20.32-5.026-3.628.827-7.09 2.372-10.718 3.196-2.89.657-4.508 1.986-4.867 5.01-.324 2.728-1.45 4.847-4.74 5.06-3.512.225-4.787-1.983-6.096-4.668-2.86-5.873-.903-12.367-2.274-19.015-3.293 1.72-3.715 4.65-5.008 6.932-.8 1.41-1.402 3.974-2.348 4.1-8.312 1.1-4.904 6.16-3.828 10.487.844 3.39 1.356 6.936-3.428 7.407-3.883.382-8.72 2.237-10.303-3.92-.52-2.03-1.087-4.056-1.763-6.04-.746-2.2-2.262-3.85-4.69-3.197-5.333 1.433-8.936-1.195-12.987-4.5.916 2.842 2.12 5.626 2.695 8.534 1.736 8.8-4.188 12.872-12.754 11.812-10.194-1.26-17.806-10.333-28.995-8.116-4.264.844-7.176 1.762-9.31 5.82-2.88 5.487-5.61 11.492-12.895 12.746-.734.127-1.896 1.11-1.893 1.693.06 9.908-8.62 14.84-12.775 22.32-2.205 3.973-6.154 6.213-11.35 4.086-6.695-2.74-7.605-5.166-3.855-11.537 2.365-4.02 4.74-8.042 5.875-12.637l.008-.013c1.363-3.463 2.658-6.953 4.107-10.38 1.215-2.872.938-5.164-1.314-7.605-4.152-4.498-5.52-10.193-5.57-16.167-.088-10.48-.154-20.91-1.355-31.394-1.9-16.626 4.96-31.03 13.635-44.598 8.145-12.733 17.86-24.593 21.086-39.934.66-3.157 2.448-6.22-.86-8.98-3.082-2.57-5.395-.684-8.152.84-4.887 2.7-8.295-1.284-11.982-3.425-3.588-2.085-2.205-5.077-1.168-8.005C490.2 41.31 493.685 20.283 499.884 0h4.2zM469.08 227.507c-11.222 8.224-19.024 18.34-18.23 33.158.104 1.944-.245 3.617-1.42 5.24-10.087 13.932-17.733 29.58-30.013 41.983-9 9.088-10.566 21.447-13.617 33.088-.213.81.14 1.86.475 2.7 5.752 14.4.02 27.66-4.8 40.65-2.515 6.777-10.804 7.076-16.386 6.714-11.513-.746-20.575 2.253-27.804 11.104-.287.353-.71.602-1.096.865-3.73 2.562-7.896 5.16-12.277 3.087-3.818-1.806-3.46-6.652-3.295-10.083.516-10.686 1.787-21.337 2.816-32 .14-1.414.688-2.886 2.195-3.308 4.534-1.266 5.163-3.434 1.956-6.896-.553-.6-1.072-2.005-.758-2.51 6.65-10.742 3.38-23.102 5.637-34.565 1.978-10.06 4.582-19.4 12.29-26.793 3.67-3.52 6.905-7.602 6.384-13.43-.13-1.46.585-3.506 1.65-4.475 7.64-6.97 20.624-35.96 24.33-45.2 8.747-21.798 21.43-41.352 34.118-60.95 8.346-12.888 14.7-26.6 12.365-42.712-.27-1.87-.03-3.617 1.46-5.154 10.784-11.12 16.82-21.278 19.65-36.763 1.745-9.546 7.056-11.174 14.24-5.29 1.815 1.486 3.837 1.415 5.927 1.533 8.775.493 11.385 5.422 6.252 12.797-5.742 8.25-9.906 13.956-14.53 22.89-9.813 18.963-16.292 38.61-14.384 60.402.592 6.714.287 13.53.037 20.288-.223 6 .7 11.547 4.022 16.677 3.36 5.186 3.31 11.05 2.81 16.936l-.008.017zM463.214 691.768c-.246-6.494 4.164-11.113 12.258-12.545 4.35-.77 9.543.06 12.992-2.058 9.354-5.737 18.775-6.635 29.065-3.903 2.655.704 5.187-.925 6.628-3.128 3.107-4.76 7.44-5.738 12.693-5.238 10.374.988 19.173-2.946 27.112-9.22 3.29-2.603 6.63-5.173 9.707-8.017 7.554-6.98 16.132-9.367 26.606-9.88 23.695-1.165 44.254-10.002 58.084-30.595 1.637-2.438 3.652-2.793 5.965-2.487 6.01.795 10.93-1.07 15.314-5.176 1.374-1.288 3.036-3.92 5.544-.375 1.328 1.882 1.938-.93 2.44-1.81 1.95-3.417 2.594-7.547 5.56-10.416 2.44-2.358 5.236-4.532 8.62-2.19 3.25 2.245 3.185 5.698 1.19 8.704-2.996 4.513-2.414 8.15 1.76 11.404 1.158.904 2.457 1.555 3.857.892 1.784-.844.968-2.386.587-3.65-1.248-4.126-1.297-8.33-.39-12.453.667-3.03.56-5.468-2.173-7.406-1.145-.81-2.24-2.04-1.695-3.54.65-1.793 2.48-1.958 4.124-2.02 2.54-.1 5.45-.755 7.326 1.344 5.603 6.262 12.55 5.594 19.408 3.663 6.483-1.825 10.336-.018 13.734 5.807 3.95 6.772 7.725 13.075 6.21 21.506-.552 3.07-1.22 4.71-4.187 5.223-.688.118-1.457.073-2.057.37-14.16 7.024-28.935 9.255-44.484 5.94-1.072-.228-2.393.035-3.436.463-23.953 9.83-50.566 10.332-74.18 21.75-15.033 7.272-31.05 12.09-45.065 21.97-11.852 8.358-26.855 10.41-40.666 14.536-23.004 6.87-46.215 13.065-69.373 19.413-7.95 2.18-8.765 1.417-9.08-6.877zM614.777 613.356c1.32-5.453 6.066-6.655 10.41-8.193 6.338-2.245 10.56-13.562 7.09-19.392-5.516-9.26-6.037-9.487-16.84-5.907-1.713.567-2.764-.038-3.586-1.19-1.472-2.063-2.91-4.094-2.005-7.01 3.77-12.113 9.027-23.896 7.443-37.154-.537-4.498 1.953-4.755 5.016-2.187 1.46 1.224 2.742 2.52 4.908 1.568 5.332-2.344 7.38-1.206 7.93 5.032.395 4.43-.406 9.402 6.64 5.392 1.983-1.126 3.06.5 3.788 1.953 2.635 5.262 3.644 10.732 2.107 17.156-3.215-1.68-4.236-11.045-9.19-1.9 4.028 1.316 6.146 3.35 3.9 8.37-2.353 5.263.972 10.928.726 16.48-.027.633.822 1.358.703 1.923-1.25 5.937-5.397 10.575-6.008 17.177-.756 8.143-8.887 7.22-14.97 8.034-2.308.308-4.608.665-6.91 1-.382-.383-.77-.766-1.15-1.15zM666.982 583.113c-6.473-5.907.06-10.68 1.725-15.758 1.754-5.34 6.566-7.952 11.77-8.596 2.8-.347 4.39 3.093 6.047 5.236 9.123 11.788 8.12 16.294-5.16 23.467-3.39 1.83-6.826 2.998-9.238 6.74-2.065 3.206-6.686 3.144-10.317 1.843-3.243-1.165-2.933-4.587-2.827-7.245.192-4.96 5.735-2.93 8-5.687zM545.19 247.477c-11.88.044-18.884-10.076-13.526-20.287 1.117-2.13 2.465-3.612 4.87-2.69 8.294 3.18 16.41 6.73 21.544 14.583 2.662 4.074 2.518 7.017-3.28 7.463-3.014.23-6.012.578-9.607.93zM576.876 570.926c-2.59.205-2.828-.918-2.646-2.976 1.094-12.45 7.205-19.065 19.04-18.464 2.632.134 5.48 5.022 7.368 8.23 1.684 2.864-1.54 3.898-3.467 4.896-6.593 3.412-13.444 6.235-20.294 8.314zM690.368 140.318c-.188 3.165.607 6.307-2.773 7.048-2.758.605-4.15-1.964-5.133-3.96-4.678-9.506-7.478-19.54-7.625-30.2-.027-1.82-.082-4.247 2.178-4.59 2.486-.376 2.73 2.183 3.062 3.884.78 3.996 2.666 6.883 5.633 9.934 4.776 4.917 2.94 12.36 4.658 17.884zM570.286 558.628c-.4 9.408-6.49 14.822-15.71 14.084-2.247-.18-3.735-.963-3.142-3.403 1.613-6.633 3.477-12.948 10.734-16.09 6.497-2.813 8.425-1.788 8.118 5.408zM598.943 573.28c2.248 2.832 4.04 4.69 6.682 5.714 3.293 1.278 4.12 4.32 3.146 7.582-1.218 4.078-1.083 8.952-6.526 10.634-3.725 1.153-5.643-1.123-7.752-3.28-.978-1-2.307-2.48-1.26-3.624 4.158-4.55 4.09-10.55 5.71-17.027zM654.984 561.684c-.117-5.216 8.156-12.254 12.018-11.25 2.594.674 4.432 2.6 2.648 5.104-3.783 5.31-4.818 11.42-6.178 17.503-.346 1.553-.895 3.352-2.984 3.23-1.642-.098-2.092-1.602-2.453-2.96-1.128-4.238-2.23-8.482-3.05-11.626zM573.782 627.888c-.62 4.15-2.123 8.244-4.578 11.97-.902 1.368-1.926 2.82-3.844 2.373-2.268-.526-2.566-2.57-2.557-4.4.02-3.87 1.658-7.733-2.064-11.25-1.44-1.36-.333-4.487 1.434-6.286 2.06-2.097 4.21-.997 6.377-.044 3.25 1.426 5.324 3.62 5.232 7.638zM586.724 546.582c-1.645.15-3.48.233-4.022-1.735-.766-2.783-.684-5.753 1.682-7.706 2.113-1.745 4.648-3.04 7.137-4.25 3.02-1.47 6.563-4.29 9.374-.61 2.607 3.407-.564 6.575-2.447 9.32-2.752 4.02-7.21 4.71-11.723 4.982zM337.054 442.52c-3.3.1-5.633-1.252-4.025-4.052 2.866-4.996 5.92-10.217 11.83-12.365 2.69-.975 5.56-1.49 7.136 2.026 1.363 3.042 1.648 5.87-1.52 8.038-4.252 2.908-8.586 5.636-13.422 6.352zM614.777 613.356c.383.385.77.768 1.152 1.15.724 1.442 1.503 2.86 2.167 4.332 1.25 2.78.664 5.003-2.264 6.23-2.807 1.176-5.514 1.438-6.914-2.05-.993-2.463-1.683-4.938-5.296-3.232-1.518.715-3.285.56-3.99-1.454-.61-1.74.158-3.2 1.424-4.33 4.38-3.896 8.96-4.352 13.72-.646z"/><path fill="#fff" d="M809.708 320.794c1.094-6.913-2.28-11.162-7.484-15.24-18.908-14.81-37.522-30.033-56.31-45-3.01-2.4-6.093-7.264-9.628-5.872-4.453 1.753-4.637 7.65-5.377 12.207-.446 2.734-.108 5.59-.31 8.377-.2 2.824 1.09 5.897-.736 8.356-14.654-7.18-16.37-22.912-24.17-34.47-.925-1.376.342-2.584.71-3.89 1.606-5.735-2.607-14.87-7.935-17.144-3.42-1.455-6.497-1.838-6.804 3.403-.166 2.855.8 6.768-3.48 7.297-5.312.656-11.697 1.47-14.68-3.87-4.022-7.2-10.035-8.322-17.04-8.408-5.665-.068-11.093-.793-15.954-4.187-5.586-3.9-16.416 1.27-16.523 8.276-.09 5.733-3.644 9.687-7.5 10.37-5.36.953-5.665-4.87-6.26-9.013-.63-4.392-2.688-5.596-6.69-3.354-3.695 2.07-7.61 3.564-11.95 3.517-4.007-.045-5.593 1.92-4.6 5.757.892 3.44-.528 5.65-3.073 7.85-3.932 3.402-3.518 7.422 1.482 8.72 6.384 1.66 7.177 5.524 6.882 10.9-.19 3.478-.047 7.006.3 10.478.456 4.607 1.798 8.72 7.17 9.953 4.714 1.078 2.358 3.604.837 5.548-7.103 9.065-16.282 8.233-24.22-2.084-2.45-3.18-4.7-5.633 1.205-8.31 6.096-2.766 5.695-7.86-.084-11.306-3.604-2.148-7.92-3.714-10.57-6.725-5.71-6.488-12.747-5.677-19.972-5.326-4.287.208-6.514 1.798-5.668 6.562.46 2.6 1.416 6.002-2.56 6.896-3.97.89-7.96.674-11.17-2.334-.568-.532-1.068-2.187-.85-2.354 6.688-5.158 1.024-7.928-2.112-11.13-1.125-1.15-1.508-2.35-.688-3.757 2.246-3.857-.557-5.895-3.17-7.194-5.03-2.496-11.357-1.408-15.904-5.82-1.05-1.016-2.93.947-3.89 2.26-5.987 8.186-14.718 13.607-21.284 21.205-1.652 1.913-3.71 3.273-6.12 1.965-2.68-1.457-4.95-2.527-7.357.354-2.44 2.926-3.758 5.94-1.46 9.523 1.564 2.436.792 4.416-1.083 6.217-14.63 14.055-36.49 43.983-36.256 49.116.205 4.532 8.107 2.858 12.295 2.932 11.23.193 21.907 2.01 27.622 13.884 1.592 3.306 4.676 5.763 8.39 7.078 7.372 2.612 11.46 8.19 12.237 15.645 1.02 9.786 5.38 17.883 11.684 24.902 10.46 11.643 18.123 24.853 23.37 39.48 1.83 5.1 4.474 5.983 8.915 3.285 9.366-5.686 18.688-11.46 28.206-16.885 8.518-4.854 16.225-1.256 16.27 8.457.046 9.772 3.49 18.137 6.972 26.77 4.223 10.466 5.834 20.814.373 31.698-4.89 9.754-2.7 13.418 8.007 16.56 1.107.323 2.236.706 3.22 1.29 1.198.717 2.415 1.69 2.057 3.315-.326 1.488-1.703 1.107-2.828 1.28-3.482.538-4.71 3.072-4.023 6.074.76 3.33 3.494 5.474 6.82 4.486 4.96-1.47 12.768 1.72 14.29-5.058.96-4.27 1.94-4.624 5.437-5.315 3.248-.642 6.17-1.742 9.41-.156 3.014 1.475 4.682-.027 5.266-4.604 3.807 9.56 10.856 13.4 18.137 16.533 18.807 8.09 35.39 19.76 52.023 31.39 1.523 1.067 3.096 2.04 3.725 4.003.517 1.618-.31 4.273 2.345 4.43 2.316.135 4.092-1.687 4.67-3.68 3.016-10.362 11.68-13.708 20.426-17.336 9.376-3.89 11.28-14.677 4.372-22.147-1.545-1.67-4.106-2.63-5.016-5.96 5.873 1.732 9.21 4.976 11.547 9.552.89 1.736.96 4.917 3.543 4.542 2.644-.383 3.182-3.576 3.103-5.695-.24-6.53 3.687-9.005 9.028-10.555 2.686-.782 5.25-2.128 7.977-2.58 6.748-1.127 8.152-4.902 6.54-11.032-2.737-10.398-4.9-20.904-3.46-31.787 1.16-8.772 2.64-17.527 3.305-26.34 1.443-19.11 1.746-38.253-2.992-57.022-2.75-10.893-1.357-13.73 9.768-16.52 2.486-.624 4.998-1.226 7.533-1.562 8.036-1.064 13.884-5.302 17.67-12.353 1.763-3.285 3.263-6.61 5.263-9.92v-12.6c-1-2.127-1.526-4.53-1.165-6.8zM428.61 350.5c2.196 8.192 1.108 15.62-3.634 22.675-3.79 5.644-6.86 11.68-7.945 18.51-.356 2.252-1.26 4.185-3.54 4.74-6.777 1.657-13.312 5.66-20.266 4.91-9.52-1.022-14.184 3.973-17.77 11.273-1.74 3.544-3.606 7.177-4.44 10.982-1.94 8.842-7.007 15.032-14.608 19.505-2.006 1.18-3.93 2.523-5.805 3.906-8.284 6.106-8.728 11.593-.966 18.075 3.87 3.233 8.033 5.925 7.46 14.114 5.116-9.487 11.894-5.158 17.507-6.82.2 3.024-3.688 2.546-3.212 4.477 1.627 6.612-5.103 5.996-7.033 6.25-9.838 1.284-15.775 8.557-23.207 13.476-1.318.872-1.842 2.472-2.303 4.147-1.334 4.858 1.367 12.642-8.186 12.007-.923-.06-1.554 1.07-1.4 2.085.565 3.748-2.044 4.822-4.778 5.77-2.47.86-3.508 2.81-4.35 5.1-1.69 4.595-3.402 9.193-5.375 13.673-6.627 15.048-4.8 29.51 2.533 43.766 4.744 9.228 11.98 15.503 22.36 15.63 13.253.164 22.77 7.203 32.442 14.63 4.11 3.153 4.95 7.007 3.566 11.767-2.766 9.51-2.732 9.615 7.236 10.823 3.527.43 5.41 2.967 5.125 5.55-.41 3.7-3.694 1.288-5.68 1.227-6.94-.212-13.784-2.46-20.825-.364-6.87 2.044-8.43 7.12-3.43 12.305 2.312 2.398 5.295 3.8 8.406 4.874 9.974 3.44 20.032 3.628 30.325 1.33 22.537-5.028 45.154-9.605 68.387-9.996 2.85-.048 6.645 1.032 7.883-2.745 1.297-3.96-.71-7.21-4.164-9.582 9.565-4.484 9.57-4.505 19.544-1.9 3.61.942 7.16 2.12 10.79 2.973 1.79.422 4.677.504 4.216-1.988-1.684-9.11 5.05-8.38 10.315-9.323 6.322-1.137 12.14 5.402 10.432 11.555-1.674 6.02.762 9.144 6.996 7.976 5.934-1.11 11.623-3.492 17.537-4.757 5.49-1.176 6.566-4.452 5.68-9.244-2.18-11.76-5.928-23.02-10.824-33.912-1.684-3.746-3.988-5.846-8.668-5.08-3.467.566-7.262.835-11.312-.794 2.334-3.414 4.438-6.428 8.06-6.916 5.147-.69 4.942-3.378 3.1-6.77-2.444-4.504-5.3-8.785-7.71-13.305-1.03-1.937-2.436-5.19 1.51-5.153 5.293.052 7.094-3.46 9.482-6.94 3.562-5.187 7.365-10.215 11.172-15.23 2.016-2.653 4.432-4.397 8.12-4.742 7.99-.745 9.563-4.116 5.878-11.163-.836-1.596-2.676-2.7-2.44-5.71 4.884 1.564 9.192-3.3 14.53-.32 2.28 1.272 4.36-.44 5.14-3.19.94-3.306.35-6.362-.65-9.575-1.853-5.984-4.362-12.257-.862-18.29 6.295-10.854 4.69-21.428-.066-32.144-3.5-7.883-6.453-15.716-6.31-24.762.13-8.417-4.665-10.366-12.058-5.95-9.01 5.378-17.88 11.003-27.02 16.147-8.718 4.91-10.96 3.99-14.3-5.465-4.96-14.044-12.326-26.633-22.19-37.762-6.806-7.676-11.638-16.214-12.89-26.625-.77-6.426-3.693-11.5-10.443-13.52-3.987-1.19-7.323-3.71-9.028-7.326-5.213-11.057-15.03-12.67-25.553-13.57-1.57-.134-11.43-1.302-12.62 1.802-.772 1.995 1.052 8.88 2.13 12.906z"/></svg>