<?xml version="1.0" encoding="utf-8"?>
<!-- Generator: Adobe Illustrator 15.0.0, SVG Export Plug-In . SVG Version: 6.00 Build 0)  -->
<!DOCTYPE svg PUBLIC "-//W3C//DTD SVG 1.1//EN" "http://www.w3.org/Graphics/SVG/1.1/DTD/svg11.dtd">
<svg version="1.1" id="Layer_1" xmlns="http://www.w3.org/2000/svg" xmlns:xlink="http://www.w3.org/1999/xlink" x="0px" y="0px"
	 width="300px" height="503.445px" viewBox="159.545 54.278 472.909 503.445"
	 enable-background="new 159.545 54.278 472.909 503.445" xml:space="preserve">
<g>
	<path fill="#FFFFFF" d="M361.549,557.722V403.479c0-9.911,0.639-19.306,1.958-28.187c1.298-8.88,3.791-17.493,7.438-25.838
		c-10.447,13.043-24.272,24.808-41.497,35.233L194.779,462.2l-34.451-58.722l134.669-78.296
		c18.791-10.961,37.83-17.225,57.156-18.791c-10.446-1.03-20.233-3.008-29.361-5.872c-9.127-2.864-18.399-7.438-27.795-13.702
		l-135.452-79.08l34.451-58.722l135.452,78.296c18.255,10.447,33.131,24.025,44.629,40.714c-4.698-9.396-7.974-18.915-9.788-28.578
		c-1.833-9.643-2.74-19.698-2.74-30.144V54.278h68.901v154.243c0,21.408-3.647,40.199-10.961,56.374
		c5.729-7.829,12.136-14.608,19.183-20.356c7.046-5.729,15-11.477,23.88-17.225l134.67-77.513l34.45,58.722l-134.67,78.295
		c-8.88,5.749-17.616,10.179-26.229,13.311c-8.613,3.132-17.617,5.212-27.013,6.263c9.396,1.051,18.399,3.009,27.013,5.872
		c8.612,2.885,17.348,7.191,26.229,12.92l135.452,79.079l-34.45,58.722l-135.452-78.296c-9.396-5.748-17.74-11.477-25.055-17.225
		s-13.846-12.796-19.574-21.141c8.345,17.225,12.527,36.017,12.527,56.374v155.026L361.549,557.722L361.549,557.722z"/>
</g>
</svg>
